<?xml version="1.0" encoding="UTF-8" standalone="no"?><!DOCTYPE svg PUBLIC "-//W3C//DTD SVG 1.1//EN" "http://www.w3.org/Graphics/SVG/1.1/DTD/svg11.dtd"><svg width="100%" height="100%" viewBox="0 0 256 256" version="1.1" xmlns="http://www.w3.org/2000/svg" xmlns:xlink="http://www.w3.org/1999/xlink" xml:space="preserve" xmlns:serif="http://www.serif.com/" style="fill-rule:evenodd;clip-rule:evenodd;stroke-linejoin:round;stroke-miterlimit:2;"><circle cx="128" cy="128" r="80" style="fill:#fff;"/><path d="M90.068,151.833c-4.351,-6.905 -6.868,-15.077 -6.868,-23.833c-0,-24.726 20.075,-44.8 44.8,-44.8c4.615,0 9.067,0.699 13.256,1.998c-3.846,3.79 -6.232,9.06 -6.232,14.882c-0,11.533 9.363,20.897 20.897,20.897c5.822,0 11.091,-2.386 14.882,-6.233c1.298,4.189 1.997,8.642 1.997,13.256c0,24.727 -20.073,44.8 -44.8,44.8c-8.756,0 -16.927,-2.516 -23.833,-6.867c1.338,-1.706 2.136,-3.856 2.136,-6.191c-0,-5.543 -4.501,-10.045 -10.044,-10.045c-2.335,0 -4.485,0.799 -6.191,2.136Z"/></svg>