<?xml version="1.0" encoding="UTF-8" standalone="no"?><!DOCTYPE svg PUBLIC "-//W3C//DTD SVG 1.1//EN" "http://www.w3.org/Graphics/SVG/1.1/DTD/svg11.dtd"><svg width="100%" height="100%" viewBox="0 0 1024 1024" version="1.1" xmlns="http://www.w3.org/2000/svg" xmlns:xlink="http://www.w3.org/1999/xlink" xml:space="preserve" xmlns:serif="http://www.serif.com/" style="fill-rule:evenodd;clip-rule:evenodd;stroke-linejoin:round;stroke-miterlimit:2;"><circle cx="512" cy="512" r="512" style="fill:#00b4af;"/><path d="M512,0c282.58,0 512,229.42 512,512c0,282.58 -229.42,512 -512,512l0,-1024Z" style="fill:#00ccc5;"/><circle cx="512" cy="512" r="370" style="fill:#fff;"/><path d="M322.338,631.168c-21.753,-34.53 -34.338,-75.391 -34.338,-119.168c0,-123.629 100.371,-224 224,-224c23.071,-0 45.333,3.496 66.281,9.985c-19.235,18.956 -31.166,45.302 -31.166,74.413c0,57.668 46.819,104.487 104.487,104.487c29.111,-0 55.457,-11.931 74.413,-31.166c6.488,20.941 9.985,43.206 9.985,66.281c0,123.629 -100.371,224 -224,224c-43.777,-0 -84.638,-12.585 -119.168,-34.338c6.691,-8.532 10.681,-19.28 10.681,-30.952c0,-27.719 -22.504,-50.223 -50.223,-50.223c-11.672,-0 -22.42,3.99 -30.952,10.681Z"/></svg>