<?xml version="1.0" encoding="UTF-8" standalone="no"?><!DOCTYPE svg PUBLIC "-//W3C//DTD SVG 1.1//EN" "http://www.w3.org/Graphics/SVG/1.1/DTD/svg11.dtd"><svg width="100%" height="100%" viewBox="0 0 512 512" version="1.1" xmlns="http://www.w3.org/2000/svg" xmlns:xlink="http://www.w3.org/1999/xlink" xml:space="preserve" xmlns:serif="http://www.serif.com/" style="fill-rule:evenodd;clip-rule:evenodd;stroke-linejoin:round;stroke-miterlimit:2;"><circle cx="255.982" cy="255.993" r="256" style="fill:#08c;"/><circle cx="255.982" cy="255.993" r="185" style="fill:#cef;"/><path d="M74.963,74.973c99.907,-99.907 262.131,-99.907 362.039,0c99.907,99.908 99.907,262.132 -0,362.039c-13.463,-104.182 -72.267,-165.969 -181.02,-181.019c-103.404,-16.034 -162.538,-77.372 -181.019,-181.02Z" style="fill:#0af;"/><path d="M412.452,354.684c-28.771,-54.772 -80.402,-88.164 -156.47,-98.691c-73.416,-11.385 -124.517,-45.606 -154.596,-101.594c33.094,-50.229 90.001,-83.406 154.596,-83.406c102.105,-0 185,82.895 185,185c0,36.273 -10.462,70.122 -28.53,98.691Z" style="fill:#fff;"/><path d="M160.315,314.207c-0.004,0.003 -0.008,0.006 -0.012,0.009c-10.354,-16.969 -16.321,-36.901 -16.321,-58.216c0,-78.126 112,-153.393 112,-153.393c0,-0 0.107,0.071 0.313,0.212c-7.148,13.594 -11.193,29.069 -11.193,45.481c-0,54.055 43.885,97.94 97.94,97.94c8.272,0 16.306,-1.027 23.981,-2.962c0.627,4.225 0.959,8.469 0.959,12.722c0,12.659 -2.104,24.829 -5.982,36.182c-0.015,0.076 -0.034,0.149 -0.058,0.219c-15.123,43.969 -56.868,75.599 -105.942,75.599l-0.018,-0c-21.118,-0 -40.879,-5.858 -57.746,-16.035c0.002,-0.003 0.004,-0.005 0.006,-0.008c-15.477,-9.342 -28.515,-22.321 -37.927,-37.75Z"/><path d="M153.176,215.394c26.774,-61.692 102.806,-112.787 102.806,-112.787c0,-0 0.107,0.071 0.313,0.212c-7.148,13.594 -11.193,29.069 -11.193,45.481c-0,54.055 43.885,97.94 97.94,97.94c8.272,0 16.306,-1.027 23.981,-2.962c0.627,4.225 0.959,8.469 0.959,12.722c0,12.659 -2.104,24.829 -5.982,36.182c-0.015,0.076 -0.034,0.149 -0.058,0.219c-0.29,0.843 -0.589,1.681 -0.898,2.514c-27.545,-19.967 -62.474,-33.028 -105.062,-38.922c-41.23,-6.394 -75.423,-19.99 -102.806,-40.599Z" style="fill:#023;"/></svg>